<svg width="48" height="60" viewBox="0 0 48 60" fill="none" xmlns="http://www.w3.org/2000/svg">
<path d="M15 12C14.2044 12 13.4413 12.3161 12.8787 12.8787C12.3161 13.4413 12 14.2043 12 15C12 15.7956 12.3161 16.5587 12.8787 17.1213C13.4413 17.6839 14.2044 18 15 18H33C33.7957 18 34.5587 17.6839 35.1213 17.1213C35.6839 16.5587 36 15.7956 36 15C36 14.2043 35.6839 13.4413 35.1213 12.8787C34.5587 12.3161 33.7957 12 33 12H15ZM15 24C14.2044 24 13.4413 24.3161 12.8787 24.8787C12.3161 25.4413 12 26.2043 12 27C12 27.7956 12.3161 28.5587 12.8787 29.1213C13.4413 29.6839 14.2044 30 15 30H33C33.7957 30 34.5587 29.6839 35.1213 29.1213C35.6839 28.5587 36 27.7956 36 27C36 26.2043 35.6839 25.4413 35.1213 24.8787C34.5587 24.3161 33.7957 24 33 24H15ZM27 45C27 45.7956 26.6839 46.5587 26.1213 47.1213C25.5587 47.6839 24.7957 48 24 48C23.2044 48 22.4413 47.6839 21.8787 47.1213C21.3161 46.5587 21 45.7956 21 45C21 44.2043 21.3161 43.4413 21.8787 42.8787C22.4413 42.3161 23.2044 42 24 42C24.7957 42 25.5587 42.3161 26.1213 42.8787C26.6839 43.4413 27 44.2043 27 45Z" fill="white"/>
<path fill-rule="evenodd" clip-rule="evenodd" d="M0 9C0 6.61305 0.948212 4.32387 2.63604 2.63604C4.32387 0.948212 6.61305 0 9 0H39C41.387 0 43.6761 0.948212 45.364 2.63604C47.0518 4.32387 48 6.61305 48 9V51C48 53.3869 47.0518 55.6761 45.364 57.364C43.6761 59.0518 41.387 60 39 60H9C6.61305 60 4.32387 59.0518 2.63604 57.364C0.948212 55.6761 0 53.3869 0 51V9ZM9 6H39C39.7957 6 40.5587 6.31607 41.1213 6.87868C41.6839 7.44129 42 8.20435 42 9V51C42 51.7956 41.6839 52.5587 41.1213 53.1213C40.5587 53.6839 39.7957 54 39 54H9C8.20435 54 7.44129 53.6839 6.87868 53.1213C6.31607 52.5587 6 51.7956 6 51V9C6 8.20435 6.31607 7.44129 6.87868 6.87868C7.44129 6.31607 8.20435 6 9 6Z" fill="white"/>
</svg>
