<svg width="161" height="57" viewBox="0 0 161 57" fill="none" xmlns="http://www.w3.org/2000/svg">
<path d="M0.272827 35.9035L9.12508 27.0633V56.394H0.272827V35.9035Z" fill="#444444"/>
<path d="M13.2874 22.3212L22.1396 13.4225V56.394H13.2874V22.3212Z" fill="#444444"/>
<path d="M26.302 9.61711L35.1543 0.776917V47.4367L91.668 47.5538V56.394H35.2715C30.2884 56.394 26.302 52.3544 26.302 47.4367V9.61711Z" fill="#444444"/>
<path d="M56.4349 0.25H47.1722V16.6424H51.8036V14.2421H56.4349C60.0696 14.2421 63.0008 11.3149 63.0008 7.68513V7.3924V6.80696C63.0008 3.23576 60.0696 0.25 56.4349 0.25ZM55.8486 10.2611H51.8036V4.40665H55.9659C57.5487 4.40665 58.8385 5.69462 58.8385 7.27532C58.8385 8.91456 57.4901 10.2611 55.8486 10.2611Z" fill="#444444"/>
<path d="M65.2871 14.3006H69.977V6.28005C69.977 5.22625 70.7978 4.40663 71.853 4.40663H77.012V0.308533H71.853H71.384C68.0424 0.308533 65.3457 3.00157 65.3457 6.3386V14.3006H65.2871Z" fill="#444444"/>
<path d="M87.2712 0.25C82.8744 0.25 79.3569 3.41139 79.3569 7.27532C79.3569 11.1392 82.933 14.3006 87.2712 14.3006C91.668 14.3006 95.1855 11.1392 95.1855 7.27532C95.2441 3.41139 91.668 0.25 87.2712 0.25ZM87.2712 10.2611C85.2194 10.2611 83.5192 8.91456 83.5192 7.27532C83.5192 5.63608 85.2194 4.28956 87.2712 4.28956C89.323 4.28956 91.0231 5.63608 91.0231 7.27532C91.0231 8.91456 89.323 10.2611 87.2712 10.2611Z" fill="#444444"/>
<path d="M63.0007 23.1408H51.2172C48.9309 23.1408 47.1135 24.9557 47.1135 27.2389V27.7073C47.1135 29.9905 48.9895 31.8639 51.2758 31.8639H58.2521C58.2521 31.8639 58.8384 31.8639 58.8384 32.4494C58.8384 33.0348 58.2521 33.0348 58.2521 33.0348H47.1135V37.1329H58.8384C61.1247 37.1329 63.0007 35.2595 63.0007 32.9762V32.4494C63.0007 30.1661 61.1833 28.3512 58.897 28.3512H51.8035C51.8035 28.3512 51.2172 28.3512 51.2172 27.7658C51.2172 27.1804 51.8035 27.1804 51.8035 27.1804H63.0007V23.1408Z" fill="#444444"/>
<path d="M100.52 23.1408H88.7368C86.4504 23.1408 84.6331 24.9557 84.6331 27.2389V27.7073C84.6331 29.9905 86.509 31.8639 88.7954 31.8639H95.7717C95.7717 31.8639 96.3579 31.8639 96.3579 32.4494C96.3579 33.0348 95.7717 33.0348 95.7717 33.0348H84.6331V37.1329H96.3579C98.6442 37.1329 100.52 35.2595 100.52 32.9762V32.4494C100.52 30.1661 98.7029 28.3512 96.4165 28.3512H89.323C89.323 28.3512 88.7368 28.3512 88.7368 27.7658C88.7368 27.1804 89.323 27.1804 89.323 27.1804H100.52V23.1408Z" fill="#444444"/>
<path d="M65.8733 23.0823H70.5633V31.2785C70.5633 32.2737 71.3254 33.0348 72.322 33.0348H77.0119V23.0823H81.7019V39.4747H77.0119V37.1329H71.7944H71.0909C68.2183 37.1329 65.8147 34.7911 65.8147 31.8639V31.2785V23.0823H65.8733Z" fill="#444444"/>
<path d="M103.393 20.7405H108.141V23.0823H115.118V27.1804H108.141V31.2785C108.141 32.2152 108.903 33.0348 109.9 33.0348H115.176V37.1329H109.314H108.728C105.796 37.1329 103.451 34.7911 103.451 31.8639V20.7405H103.393Z" fill="#444444"/>
<path d="M118.635 23.0823H134.464V27.1804H123.325V28.3513H134.464V31.8639H123.325V33.0348H134.464V37.1329H118.635V23.0823Z" fill="#444444"/>
<path d="M136.809 37.1329H141.499V29.5222C141.499 28.2342 142.554 27.1804 143.843 27.1804C145.133 27.1804 146.247 28.2342 146.247 29.5807V37.0744H150.937V29.5222C150.937 25.9509 148.064 23.0823 144.488 23.0823H143.902H143.316C139.74 23.0823 136.867 25.9509 136.867 29.5222V37.1329H136.809Z" fill="#444444"/>
<path d="M146.188 37.1329H150.878V29.5222C150.878 28.2342 151.934 27.1804 153.223 27.1804C154.513 27.1804 155.627 28.2342 155.627 29.5807V37.0744H160.317V29.5222C160.317 25.9509 157.444 23.0823 153.868 23.0823H153.282H152.696C149.12 23.0823 146.247 25.9509 146.247 29.5222V37.1329H146.188Z" fill="#444444"/>
</svg>
