<svg width="54" height="46" viewBox="0 0 54 46" fill="none" xmlns="http://www.w3.org/2000/svg">
<path d="M47.3133 9.875H43.875V2.375C43.875 1.87772 43.6775 1.40081 43.3258 1.04918C42.9742 0.697544 42.4973 0.5 42 0.5H12C11.5027 0.5 11.0258 0.697544 10.6742 1.04918C10.3225 1.40081 10.125 1.87772 10.125 2.375V9.875H6.68672C3.4125 9.875 0.75 12.3992 0.75 15.5V34.25C0.75 34.7473 0.947544 35.2242 1.29917 35.5758C1.65081 35.9275 2.12772 36.125 2.625 36.125H10.125V43.625C10.125 44.1223 10.3225 44.5992 10.6742 44.9508C11.0258 45.3025 11.5027 45.5 12 45.5H42C42.4973 45.5 42.9742 45.3025 43.3258 44.9508C43.6775 44.5992 43.875 44.1223 43.875 43.625V36.125H51.375C51.8723 36.125 52.3492 35.9275 52.7008 35.5758C53.0525 35.2242 53.25 34.7473 53.25 34.25V15.5C53.25 12.3992 50.5875 9.875 47.3133 9.875ZM13.875 4.25H40.125V9.875H13.875V4.25ZM40.125 41.75H13.875V30.5H40.125V41.75ZM49.5 32.375H43.875V28.625C43.875 28.1277 43.6775 27.6508 43.3258 27.2992C42.9742 26.9475 42.4973 26.75 42 26.75H12C11.5027 26.75 11.0258 26.9475 10.6742 27.2992C10.3225 27.6508 10.125 28.1277 10.125 28.625V32.375H4.5V15.5C4.5 14.4664 5.48203 13.625 6.68672 13.625H47.3133C48.518 13.625 49.5 14.4664 49.5 15.5V32.375ZM43.875 20.1875C43.875 20.7438 43.71 21.2875 43.401 21.75C43.092 22.2126 42.6527 22.573 42.1388 22.7859C41.6249 22.9988 41.0594 23.0545 40.5138 22.946C39.9682 22.8374 39.4671 22.5696 39.0738 22.1762C38.6804 21.7829 38.4126 21.2818 38.304 20.7362C38.1955 20.1906 38.2512 19.6251 38.4641 19.1112C38.677 18.5973 39.0374 18.158 39.5 17.849C39.9625 17.5399 40.5062 17.375 41.0625 17.375C41.8084 17.375 42.5238 17.6713 43.0512 18.1988C43.5787 18.7262 43.875 19.4416 43.875 20.1875Z" fill="white"/>
</svg>
