<svg width="51" height="51" viewBox="0 0 51 51" fill="none" xmlns="http://www.w3.org/2000/svg">
<path d="M19.2098 0L21.4189 2.44686C23.8407 5.12825 27.7713 5.12171 30.1855 2.44686L32.2582 0.151633C34.7698 0.828238 37.1658 1.87731 39.3666 3.26393L39.2171 6.1875C39.0327 9.79615 41.8178 12.5703 45.4156 12.387L48.0611 12.2517C49.4245 14.585 50.416 17.1164 51 19.7548L49.1564 21.4184C46.476 23.8402 46.4836 27.7707 49.1564 30.1848L50.8593 31.7208C50.1957 34.4127 49.1063 36.9814 47.6324 39.3297L45.4156 39.2163C41.808 39.0319 39.0338 41.8169 39.2171 45.4147L39.3305 47.6313C36.9822 49.1053 34.4135 50.1946 31.7215 50.8582L30.1855 49.1564C27.7636 46.475 23.8331 46.4816 21.4189 49.1564L19.7553 51C17.1167 50.4157 14.5852 49.4238 12.252 48.0601L12.3873 45.4147C12.5716 41.8071 9.78655 39.033 6.18873 39.2163L3.26509 39.3657C1.87797 37.1648 0.828494 34.7684 0.151636 32.2564L2.44691 30.1837C5.12836 27.7641 5.12182 23.8326 2.44691 21.4184L0 19.2094C0.599419 16.7525 1.55382 14.3962 2.83309 12.2146L6.18873 12.3859C9.79636 12.5703 12.5705 9.78524 12.3873 6.1875L12.2149 2.83303C14.3958 1.55398 16.7515 0.599607 19.2076 0M17.5015 4.10937C17.1114 4.2543 16.7254 4.40999 16.344 4.57627L16.3724 5.13589C16.7018 11.5808 11.5865 16.7015 5.136 16.372L4.57636 16.3437C4.41055 16.7255 4.25455 17.1105 4.10945 17.5L4.51636 17.8687C9.30655 22.193 9.31091 29.4299 4.51636 33.7586L4.32873 33.9287C4.51091 34.3804 4.70727 34.8265 4.91782 35.2651L5.136 35.2542C11.5178 34.928 16.6025 39.9417 16.3811 46.3048C16.9189 46.5383 17.4676 46.751 18.0229 46.9419C22.2469 42.4453 29.1022 42.3733 33.4091 46.739C34.0309 46.5056 34.6418 46.2459 35.2407 45.959C35.2102 39.9428 39.9393 35.2094 45.96 35.24C46.2469 34.6411 46.5065 34.0291 46.74 33.4073C42.3775 29.1048 42.4418 22.2497 46.9429 18.0225C46.752 17.4662 46.5393 16.9185 46.3047 16.3807C40.0495 16.5989 35.0891 11.6834 35.2429 5.43916L35.2658 4.91771C34.8268 4.707 34.3811 4.51054 33.9295 4.32863L33.7593 4.51627C29.4349 9.30635 22.1967 9.31071 17.8691 4.51627L17.5015 4.10937ZM25.4367 15.6182C26.7261 15.6182 28.0028 15.8722 29.194 16.3656C30.3852 16.859 31.4675 17.5821 32.3792 18.4938C33.2909 19.4055 34.0141 20.4878 34.5075 21.679C35.001 22.8702 35.2549 24.1469 35.2549 25.4362C35.2549 26.7255 35.001 28.0022 34.5075 29.1934C34.0141 30.3845 33.2909 31.4669 32.3792 32.3785C31.4675 33.2902 30.3852 34.0134 29.194 34.5068C28.0028 35.0002 26.7261 35.2542 25.4367 35.2542C22.8328 35.2542 20.3355 34.2198 18.4942 32.3785C16.653 30.5373 15.6185 28.0401 15.6185 25.4362C15.6185 22.8323 16.653 20.3351 18.4942 18.4938C20.3355 16.6526 22.8328 15.6182 25.4367 15.6182ZM25.4367 18.8909C24.5772 18.8909 23.726 19.0602 22.9319 19.3891C22.1378 19.718 21.4162 20.2002 20.8084 20.8079C20.2006 21.4157 19.7185 22.1373 19.3895 22.9314C19.0606 23.7255 18.8913 24.5766 18.8913 25.4362C18.8913 26.2957 19.0606 27.1469 19.3895 27.941C19.7185 28.7351 20.2006 29.4566 20.8084 30.0644C21.4162 30.6722 22.1378 31.1543 22.9319 31.4833C23.726 31.8122 24.5772 31.9815 25.4367 31.9815C27.1727 31.9815 28.8376 31.2919 30.0651 30.0644C31.2926 28.8369 31.9822 27.1721 31.9822 25.4362C31.9822 23.7003 31.2926 22.0354 30.0651 20.8079C28.8376 19.5805 27.1727 18.8909 25.4367 18.8909Z" fill="white"/>
</svg>
