<svg width="68" height="68" viewBox="0 0 68 68" fill="none" xmlns="http://www.w3.org/2000/svg">
<g clip-path="url(#clip0_58_939)">
<path fill-rule="evenodd" clip-rule="evenodd" d="M35.6836 0.0409556C35.1258 0.0137575 34.5645 0 34 0C33.5035 0 33.0094 0.0106434 32.5181 0.0317145C32.4495 0.0346555 32.381 0.0377996 32.3125 0.0411463L32.3077 0.0413827V27.6778L18.4859 3.73781C17.4817 4.25365 16.5065 4.81801 15.5635 5.42779L29.4802 29.5322L5.38921 15.6233C4.78142 16.5676 4.21911 17.5439 3.70536 18.5492L27.5429 32.3118H0.0411795C0.013833 32.8711 0 33.4339 0 34C0 34.5659 0.0138259 35.1286 0.0411583 35.6877H29.738C29.531 35.1655 29.4173 34.5961 29.4173 34.0002C29.4173 32.0654 30.6167 30.4106 32.3125 29.739C32.8347 29.5318 33.4041 29.4188 34 29.4187C34.5944 29.4188 35.1624 29.5322 35.6836 29.7384C36.8588 30.2026 37.7961 31.1378 38.2618 32.3123H38.2601C38.4671 32.8345 38.5808 33.4039 38.5808 33.9998C38.5808 36.5301 36.5296 38.5813 33.9993 38.5813C33.4029 38.5813 32.8332 38.4674 32.3106 38.2601V67.9589C32.8697 67.9862 33.4323 68 33.9981 68C34.5642 68 35.1272 67.9862 35.6865 67.9588V40.3222L49.5092 64.2637C50.5134 63.748 51.4887 63.1837 52.4318 62.5741L38.514 38.4678L62.6078 52.3784C63.2157 51.4341 63.7781 50.4578 64.2919 49.4525L40.4513 35.6882H67.9569C67.9569 35.688 67.9569 35.6884 67.9569 35.6882L67.9588 35.6877C67.9862 35.1286 68 34.5659 68 34C68 33.4339 67.9862 32.8711 67.9588 32.3118H40.4532L64.2937 18.5475C63.7799 17.5422 63.2176 16.5659 62.6097 15.6216L38.5159 29.5322L52.4337 5.42595C51.4906 4.81627 50.5153 4.25201 49.5111 3.73626L35.6884 27.6778V0.0411915L35.6836 0.0409556Z" fill="#D7DBF7"/>
</g>
<defs>
<clipPath id="clip0_58_939">
<rect width="68" height="68" fill="white"/>
</clipPath>
</defs>
</svg>
