<svg width="68" height="68" viewBox="0 0 68 68" fill="none" xmlns="http://www.w3.org/2000/svg">
<g clip-path="url(#clip0_58_933)">
<path fill-rule="evenodd" clip-rule="evenodd" d="M35.6819 0.0408736C35.1247 0.0137299 34.5639 0 34 0C33.503 0 33.0084 0.0106647 32.5166 0.0317777C32.4485 0.0347006 32.3805 0.0378237 32.3125 0.0411465L32.306 0.0414652V27.6778L18.4846 3.73848C17.4804 4.25436 16.5053 4.81876 15.5622 5.42858L29.4785 29.5322L5.38875 15.624C4.78099 16.5683 4.2187 17.5447 3.70498 18.55L27.5412 32.3118H0.0411795C0.0411724 32.312 0.0411866 32.3116 0.0411795 32.3118C0.0343517 32.4515 0.0283455 32.5918 0.0232084 32.732C0.0181062 32.8711 0.0138402 33.0105 0.0104156 33.1501C0.00521115 33.3622 0.00194952 33.5748 0.0006478 33.7879C0.000216141 33.8585 0 33.9292 0 34C0 34.1099 0.000521242 34.2196 0.00156139 34.3293C0.0058793 34.7844 0.0191399 35.2374 0.0411758 35.6882H27.5412L3.70498 49.45C4.2187 50.4553 4.78099 51.4317 5.38875 52.376L29.4785 38.4678L15.5622 62.5714C16.5053 63.1812 17.4804 63.7456 18.4846 64.2615L32.306 40.3222V67.9585L32.3125 67.9589C32.8716 67.9862 33.4342 68 34 68C34.4954 68 34.9883 67.9894 35.4785 67.9684C35.5463 67.9655 35.6141 67.9624 35.6819 67.9591L35.6884 67.9588V40.3222L49.5111 64.2637C50.5153 63.748 51.4906 63.1837 52.4337 62.5741L38.5159 38.4678L62.6097 52.3784C63.2176 51.4341 63.7799 50.4578 64.2937 49.4525L40.4532 35.6882H67.9588C67.9588 35.688 67.9588 35.6884 67.9588 35.6882C67.9862 35.1291 68 34.5659 68 34C68 33.4341 67.9862 32.8715 67.9588 32.3124C67.9588 32.3122 67.9588 32.3126 67.9588 32.3124L40.4532 32.3118L64.2937 18.5475C63.7799 17.5422 63.2176 16.5659 62.6097 15.6216L38.5159 29.5322L52.4337 5.42595C51.4906 4.81627 50.5153 4.25201 49.5111 3.73626L35.6884 27.6778V0.0411913L35.6819 0.0408736ZM38.5827 33.9998C38.5825 32.063 37.3806 30.407 35.6819 29.7368C35.1612 29.531 34.5938 29.4188 34 29.4187C33.4041 29.4188 32.8347 29.5327 32.3125 29.7399C30.6167 30.4115 29.4173 32.0654 29.4173 34.0002C29.4173 34.0747 29.419 34.1488 29.4226 34.2224C29.5105 36.0608 30.6821 37.6153 32.3125 38.261C32.8347 38.4682 33.4041 38.5812 34 38.5813C34.5938 38.5812 35.1612 38.4681 35.6819 38.2623C37.295 37.6259 38.4602 36.1013 38.5737 34.2906C38.5797 34.1946 38.5827 34.0974 38.5827 33.9998Z" fill="#D7DBF7"/>
</g>
<defs>
<clipPath id="clip0_58_933">
<rect width="68" height="68" fill="white"/>
</clipPath>
</defs>
</svg>
