<svg width="68" height="68" viewBox="0 0 68 68" fill="none" xmlns="http://www.w3.org/2000/svg">
<path fill-rule="evenodd" clip-rule="evenodd" d="M35.6875 0.0411465C35.1284 0.0138219 34.5658 0 34 0C33.4339 0 32.871 0.013837 32.3116 0.0411913V27.6779L18.4889 3.73626C17.4847 4.25201 16.5094 4.81627 15.5663 5.42595L29.4841 29.5322L5.39027 15.6216C4.78242 16.5659 4.22005 17.5422 3.70625 18.5475L27.5468 32.3118H0.0411795C0.013833 32.8711 0 33.4339 0 34C0 34.5659 0.0138259 35.1286 0.0411583 35.6877H29.7381C29.531 35.1655 29.4173 34.5961 29.4173 34.0002C29.4173 31.4699 31.4685 29.4187 33.9988 29.4187C34.5952 29.4187 35.1649 29.5326 35.6875 29.7399V0.0411465Z" fill="#D7DBF7"/>
</svg>
