<svg width="68" height="68" viewBox="0 0 68 68" fill="none" xmlns="http://www.w3.org/2000/svg">
<path fill-rule="evenodd" clip-rule="evenodd" d="M34 0C34.5658 0 35.1284 0.0138218 35.6875 0.0411463C35.6891 0.041225 35.6907 0.0413038 35.6923 0.0413827V27.6778L49.5141 3.73781C50.5183 4.25365 51.4935 4.81801 52.4365 5.42779L38.5198 29.5322L62.6108 15.6233C63.2186 16.5676 63.7809 17.5439 64.2946 18.5492L40.4571 32.3118H67.9588C67.9862 32.8711 68 33.4339 68 34C68 34.5659 67.9862 35.1286 67.9588 35.6877H38.262C38.469 35.1655 38.5827 34.5961 38.5827 34.0002C38.5827 32.0654 37.3833 30.4106 35.6875 29.739C35.1653 29.5318 34.5959 29.4188 34 29.4187C33.4056 29.4188 32.8376 29.5322 32.3164 29.7384C30.6185 30.4091 29.4173 32.0639 29.4173 34.0002C29.4173 34.5961 29.531 35.1655 29.7381 35.6877H0.0411583C0.0138259 35.1286 0 34.5659 0 34C0 33.4339 0.013833 32.8711 0.0411795 32.3118H27.5468L3.70625 18.5475C4.22005 17.5422 4.78242 16.5659 5.39027 15.6216L29.4841 29.5322L15.5663 5.42595C16.5094 4.81627 17.4847 4.25201 18.4889 3.73626L32.3116 27.6778V0.0411915C32.3132 0.0411127 32.3148 0.0410341 32.3164 0.0409556C32.3847 0.0376246 32.4531 0.0344951 32.5215 0.0315678C33.0117 0.010594 33.5046 0 34 0Z" fill="#D7DBF7"/>
</svg>
